<svg xmlns="http://www.w3.org/2000/svg" width="1093.333" height="817.333" version="1.0" viewBox="0 0 820 613"><path d="M753.7 41.7c-.4.3-.7 2.4-.7 4.5 0 4.5.3 4.5-14.5 2.1-14.8-2.3-115.6-2.9-200-1.2-69.5 1.5-80 1.5-145 .9-26.8-.3-43.1 0-52 .8-8.6.9-35.3 1.4-78.5 1.6-77.9.4-107.3 2.1-135.5 7.7-7.4 1.5-14.9 2.1-28.5 2.3-10.6.2-20.2.8-22.5 1.5-8.2 2.5-14.5 5.4-14.5 6.7 0 1-1.5 1.4-5.6 1.4h-5.5l.3-8.3c.2-6.8 0-8.2-1.2-8.2s-1.6 1.7-1.8 8.2l-.3 8.3-3.7.1c-2 .1-4.4.2-5.2.3-1.8.1-4.9 9.6-4.9 15.3-.1 3.4.3 4.3 1.6 4.3 1.5 0 1.6 1.9 1 22.2-.5 16.3-1.2 24.9-2.6 31.9-2.8 13.4-4.9 30.6-6.1 49.9-.6 9.1-1.7 22.3-2.5 29.5-3.6 32.7-5.9 77.5-7.5 149.1-1 43.2-1.5 53.6-4.5 87.9-3.5 41-2.7 60.5 3.7 81.7 1.7 5.9 4.8 4.5 4.8-2 0-1.5.3-3.8.7-5.2.6-2.2.8-1.9 1.7 2.4 1.1 5 3.6 7.6 3.6 3.7 0-1.6.5-2 2.3-1.7 1.7.2 2.2 1 2.2 3.2 0 1.6.6 3.9 1.3 5.1 1.4 2.6 1.6 2.5-5.5 2.3-6.2-.2-7.9.5-6.2 2.6.7.8 3 1.4 5.9 1.4 2.6 0 6.8.3 9.3.6l4.5.7 1.8 7.1c2.9 12.1 5.4 12.7 5.4 1.2v-7.3l11.3 2c8.3 1.5 16.2 2 30.7 2 17.9.1 20.9-.1 37.5-3.1 20.4-3.7 30-4.2 120.5-6.2 27.2-.6 61-1.5 75-2s49.4-1.6 78.5-2.5c29.2-.8 55.3-1.7 58-2 6-.7 116.9-2.9 134-2.7 6.6.1 25.2.9 41.4 1.8 40.9 2.3 66 1.6 93.1-2.5 23.3-3.6 28.8-3.9 38-2.1 8.5 1.6 25.9 1.6 33.7 0 6.3-1.3 10.4-3.3 9.2-4.5-1.1-1.1-13-2.5-21.3-2.5h-8l4.3-3.6c2.6-2.3 3.9-4 3.3-4.6-.5-.5-3.6-1.8-6.8-2.8l-5.9-1.8.1-6.3c1-46.9 2.4-91.8 2.8-93.4.6-2.2 3-36.7 4.7-68 1.8-34.4 3.8-188.5 2.8-224.5-.2-9.1 0-26.3.5-38.3.7-18.8.6-21.7-.6-21.7-1.8 0-2.8 9.4-2.8 24.9 0 5.4-.4 9.1-.9 8.5-2.2-2.4-5.4-18.5-5.9-29.1l-.4-11.2 8.8-.3c7.1-.2 8.9-.6 8.9-1.8 0-.8-1-1.6-2.2-1.8-1.2-.2-2.7-1-3.3-1.8-1.6-1.8-4-1.8-4 .1 0 2.2-6.6 1.9-18-.9l-9.5-2.3-.3-4.4c-.3-4.5-1.3-6.5-2.5-5.2zM719 50c16 1.2 30.1 3 32 4.2 1.6.9-6.5.7-80.5-1.8-25.3-.8-61.5-1.9-80.5-2.3-30.7-.7-26.3-.8 41-.9 41.5-.1 81.1.3 88 .8zm-218.2 1.7c-2.1.2-5.5.2-7.5 0-2.1-.2-.4-.4 3.7-.4 4.1 0 5.8.2 3.8.4zm-223.3 2.2 10 .6-9 .8c-21.2 1.8-40.4 2.7-79 3.7-22.5.5-45.7 1.2-51.5 1.4-14.8.6-10.3-.9 8.5-2.8 35.6-3.5 95.2-5.4 121-3.7zm189.5 0c0 .4-3.5 1.1-7.8 1.5-4.3.3-13.4 1.5-20.2 2.6-11.6 1.9-13.9 2-32.5.9-13.2-.8-39.3-1-77-.6-31.3.3-56.1.3-55 .1 1.1-.2 9.4-1.1 18.5-2.1 12.3-1.2 30.4-1.8 71.5-2.3 95-1 102.5-1 102.5-.1zm173 1c5.1.5-3.4.9-26 1.4-28.5.6-43.7.3-77-1.5-2.5-.1.7-.5 7-.8 13.5-.8 85.1-.1 96 .9zm-115 2.5c19.6 1.4 19.2 1.5-24 4.6-26.2 1.9-31.1 1.9-43.9.8-9.2-.8-13.7-1.5-12.5-2 3.5-1.5 37.7-4.6 50.9-4.6 7.2 0 20.4.5 29.5 1.2zm78.4 3.7c7.8.1 13.2.3 12.1.5-1.1.2-23.1 1.9-49 3.8-42.3 3.1-48.2 3.3-58.5 2.2-12.5-1.2-12.8-2.6-.7-2.7 4 0 21.4-1.1 38.7-2.4 17.3-1.3 34.2-2.2 37.4-1.9 3.2.2 12.2.5 20 .5zM752 66c0 7 .5 6.7-13 9.5-8.4 1.7-8.7 1.7-15.1-.3-11.9-3.7-24-4.5-57.8-4-35.2.5-35.2 1 .9-5.7 22.3-4.2 33.8-5.1 63.8-5.4L752 60v6zm19.4-4.5c-.7 1.8-1.2 1.8-4.4 0l-2.5-1.4 3.7-.1c2.9 0 3.6.3 3.2 1.5zm-376 .2c7.6.3 13.2.9 12.4 1.3-.7.4-5 1.3-9.5 2-6.6 1.1-13.9 1.1-38.5.1-16.7-.6-35.7-1.5-42.3-1.9l-12-.7 14-.5c22.3-.9 61-1.1 75.9-.3zM766.3 65c1.5.7 2.7 1.7 2.7 2.1 0 .7-9.7 3.9-11.9 3.9-.7 0-1.1-2-1.1-5v-4.9l3.8 1.3c2 .8 4.9 1.9 6.5 2.6zm-105.8-2.1c-1.2 1-25.3 5.6-37.5 7.1-12.7 1.5-66 2.5-69 1.2l-2.5-1.1h2.5c1.4-.1 20.1-1.4 41.5-3.1 21.5-1.7 44.6-3.4 51.5-3.9 6.9-.4 12.9-.9 13.5-1 .6 0 .6.2 0 .8zm-561 1c-1 .9-22.4 5.1-25.7 5.1-2.7 0-2.2-1.9.8-3 5.4-2.1 26.8-3.9 24.9-2.1zm340.9.6c16 1 11.2 2.6-9.9 3.2-20.6.7-24.9-.2-12.5-2.7 4.7-1 9.2-1.6 10-1.4.8.1 6.4.6 12.4.9zm-309.9 1.1c-4.9.7-13.9 1.5-20 1.8l-11 .6 7-1.9c5.2-1.4 10.4-1.9 20-1.9l13 .1-9 1.3zm186.5.8c19.5.9 39.8 1.9 45 2.3l9.5.7-10 1.4c-14 2-61.8 1.9-99-.1-16.5-1-43.9-1.7-60.9-1.7s-30.6-.3-30.3-.6c.4-.4 6.8-1.5 14.4-2.5 11.9-1.6 19.3-1.8 54.8-1.4 22.6.2 57 1 76.5 1.9zm-167.7 1.3c-.7.2-1.9.2-2.5 0-.7-.3-.2-.5 1.2-.5s1.9.2 1.3.5zM68.5 69c-.3.5-1.1 1-1.6 1-.6 0-.7-.5-.4-1 .3-.6 1.1-1 1.6-1 .6 0 .7.4.4 1zm420-.1 6 .6-5.3.8c-6.4.9-35.2-.4-30.7-1.4 3.8-.9 22.2-.9 30 0zm-75.6 1.6c-.3.2-8.1 1.6-17.4 3-9.4 1.4-23.3 3.7-31 5.1l-14 2.6-65.5-.6c-60.8-.6-66.1-.8-73.3-2.7-4.3-1.1-12.4-2.7-18-3.5-5.6-.8-10.3-1.7-10.6-2-1.1-1.1 46.2-.2 78.9 1.6 56.7 3.1 85.7 2.6 114.1-1.9 10.1-1.6 38-2.9 36.8-1.6zM773 74.7c0 2.1.9 7.8 1.9 12.8 1.5 7.4 1.6 11.1 1 20.5-.4 6.3-.8 17.6-.9 25-.1 7.4-.3 13-.5 12.5-.2-.6-.9-9.8-1.5-20.5-1.3-23.2-3.3-40-5-41-.9-.5-.9-1.7 0-5.1 2.3-8.5 5-10.7 5-4.2zm-293.5-.8 18 .6-10.5.8c-5.8.4-22.8 1.9-37.9 3.3-19.2 1.7-34.2 2.4-49.9 2.4-12.4 0-22.3-.2-22.1-.5.3-.2 10.2-2 22-3.9s22.5-3.7 23.9-4c2.3-.4 12.7-.2 56.5 1.3zm284.9 6.3c-1.2 4.6-2.6 9.6-3 11.3-.7 2.8-.8 2.7-1.7-2.3-.6-3.4-1.5-5.2-2.4-5.2-1.1 0-1.3-1.2-1.1-4.7.3-4.7.3-4.7 4.8-5.9 2.5-.7 4.8-1.2 5.1-1.3.3-.1-.4 3.6-1.7 8.1zM44 77.7c-.1 2.7-.7 5.9-1.5 7.3-1.3 2.3-1.4 2-1.5-4.8 0-5.7.3-7.2 1.5-7.2 1.1 0 1.5 1.2 1.5 4.7zm477.8-4c-1 .2-2.8.2-4 0-1.3-.2-.5-.4 1.7-.4 2.2-.1 3.2.1 2.3.4zM172 76.1c22.1 1.5 27.9 3 9 2.4-8-.3-25.4-.8-38.8-1.1-13.3-.4-24-1-23.7-1.3 2.1-2 21.7-2 53.5 0zM705.1 75c5.7.6 12.2 1.6 14.4 2.2 3.8 1 3.9 1.1 1.5 1.9-3.8 1.3-34 5.7-48 7-6.9.7-23.1 1.2-36 1.2-20.4-.1-27.9-.6-56-3.8-27.5-3.1-37.1-3.8-62.5-4.3-46.6-1-22.5-2.2 52.5-2.7 34.4-.2 67.9-.8 74.5-1.3 17.5-1.3 47.7-1.4 59.6-.2zm46.4 10.7c-.3 5.4-1.5 25.8-2.5 45.3-1.1 19.5-2.9 51-3.9 70-2 33.3-4.1 80.5-4.1 89.6 0 3.2.4 4.4 1.4 4.4 2 0 2.3-1.3 4.1-22 .9-10.2 2-21.7 2.4-25.5.3-3.9.6 11 .6 33 0 36 .2 41.8 2.3 58.5 2.2 17.2 2.3 20.8 1.7 49.5-.5 24.6-1.1 33.6-2.7 43.5-3.6 21-2.6 59.1 1.5 61.7.5.3 2.1-.7 3.4-2.3l2.3-2.9v9.7c0 8 .3 9.8 1.5 9.8 1.1 0 1.5 1.1 1.5 3.8v3.8l-11.2-2.3c-12.4-2.5-36-5.6-56.3-7.4-8.2-.7-46.5-1.3-103.5-1.6-92-.5-111.2 0-142 3.3-13.4 1.5-30.7 2-31.7 1-.3-.2.5-1.4 1.7-2.6 1.1-1.1 1.8-2.5 1.5-3-1-1.6-38-1.2-53.8.6-7.8.9-16.7 1.3-19.7 1-10.2-1.2-32.2-.7-64 1.3-17.3 1.2-45.2 2.5-62 3.1-62.7 2.1-86.8 4.1-119.3 9.6-14.4 2.5-14.9 2.5-21.4.9-8.8-2.2-19.7-2.9-25.2-1.7l-4.3 1 .6-22.6c2.9-101 3.9-131.9 5.6-182.7 2-56 4.8-132.6 7.1-187.5 1-24.8 1.4-28.5 5-42.3 1-3.7 1-3.7 6.2-3.7 5.9 0 7.8 1 18.2 9.4 10.1 8.1 15.5 9.9 28 9.4 9.2-.5 11.8-1.1 31.5-7.8 26.2-8.8 32.6-9.5 55.5-6.1 60.9 9.2 73.2 10.5 96.5 10.5 21.4-.1 30.9-.9 80-7 31.6-3.9 49.7-4.9 102-5.9 41.8-.7 61.3.2 99.1 4.7 24.4 2.9 30.3 3.3 53.4 3.2 27.5 0 36.6-.8 75.3-7.1l16.3-2.6 2.8 2.7c4.3 4.1 6.7 3.3 3.5-1.2-.9-1.3-1.4-2.5-1.3-2.6.5-.4 13.9-3.4 15.7-3.5.9-.1 1.1 2.2.7 9.6zm-607.2-5c13 .3 23.5.8 23.2 1.1-.9.9-29.8 11.2-36 12.8-4 1.1-8.8 1.5-14.5 1.2-7.1-.3-9.4-.9-14.1-3.4-6.2-3.3-16.8-11.4-16.8-12.8-.1-.5 7-.6 17.2-.3 9.4.4 27.9 1 41 1.4zm-83.5 12c-.6 8.9-4.1 28-5.4 29.3-1.3 1.2 1.4-23.5 3.7-34.2 1.7-7.7 2.5-5.6 1.7 4.9zm246.7-8.6c20.9.2 18.1.6-22.5 3.4-21.1 1.4-24.6 1.4-34.5.1-6-.8-13-2.2-15.5-3-4.2-1.5-2.4-1.5 25-1.1 16.2.3 37.6.6 47.5.6zM55.1 89.7c-.9 1.5-1 1.3-1.1-1.3 0-1.7.3-3.4.8-3.8 1.1-1.2 1.4 3.2.3 5.1zM372 86.6c-34 4.1-50.9 5.4-67.9 5.4-19-.1-19.8-1.4-1.6-2.5 13.4-.7 37.4-3.1 45-4.4 2.8-.5 13.8-.9 24.5-.9h19.5L372 86.6zm396.8 25.6c.6 8.4 1.4 20.4 1.8 26.7.7 13.4-.5 61.1-1.6 61.1-.4 0-1.1-7.5-1.4-16.8-1-23.6-2.5-47.9-3.7-60.1-.9-8.9-.9-11.5.6-18.7 1-4.6 2.1-8.1 2.5-7.9.4.2 1.2 7.3 1.8 15.7zM45.5 122.6c-.8 12.6-1.5 24.7-1.6 26.9-.1 3.9-.2 3.9-.9 1-1.3-4.9-1.1-15.4.4-27.5.8-6.3 1.8-14.3 2.1-17.8 1.4-13.2 1.4-4.7 0 17.4zm712.6-3.8c-.8 1.3-1 .9-1.1-2.3 0-2.2.4-5.8.8-8 .7-3.8.7-3.7 1 2.3.2 3.4-.2 7-.7 8zm22.8 9.7c.1 9.9-2.7 54.6-3.4 55.4-.7.6.2-40.1 1.2-57.9.7-12.8 2-11.3 2.2 2.5zM58 171.6c-2.5 61.7-5.6 148.3-7.1 194.4-.6 19.5-1.4 43.6-1.8 53.5l-.8 18-.1-22c-.1-12.1.3-37.3.8-56 .5-18.7 1.7-70 2.5-114 1.6-81.9 2.1-92.6 5.5-111.2 1.1-5.9 2-11.1 2-11.7 0-.5.2-.7.5-.5.2.3-.4 22.5-1.5 49.5zm703.7-29.9c-.2 1.6-.4.3-.4-2.7s.2-4.3.4-2.8c.2 1.6.2 4 0 5.5zm-9 11.5c-.3.8-.6.5-.6-.6-.1-1.1.2-1.7.5-1.3.3.3.4 1.2.1 1.9zm11.2 56.8c.1 18.3-.3 33-.7 32.5-.5-.6-1.7-11.8-2.6-25.1-1.6-22.6-1.6-32.8.1-50.4l.6-6.5 1.3 8c.8 5.1 1.3 20 1.3 41.5zm16.5 14.5c-.9 9.3-1.8 17.2-2 17.4-.9 1-.2-13.5 2.8-56.9.1-1.9.4 2.3.6 9.5.2 7.4-.4 20.3-1.4 30zM34.6 209.7c-.4 15.4-1.4 32.3-2.4 39.8l-1.7 13-.3-24.5c-.2-20.2.1-27 1.8-39 1.1-8 2-14.9 2-15.3 0-.4.3-.7.6-.7s.3 12 0 26.7zm718.5 4.5c-.7 2.7-.9 1.5-1-6.2 0-5.2.2-12.7.7-16.5.6-6.5.7-6 1 6.2.1 7.3-.2 14.8-.7 16.5zm20.6 22c-.6 46.5-2 77.6-3.6 82.1-.5 1.2-1.3-4.9-2.1-14.8-1.3-15.9-1.2-19 1.3-54.4 1.5-20.7 3-43.1 3.4-49.9.3-6.7.8-12.2 1.1-12.2.3 0 .2 22.2-.1 49.2zm-13.3 18.6c1.8 19.5 2.2 57.7.6 58.7-.6.3-1.2 0-1.4-.7-.6-1.9-1.9-76.4-1.3-75.8.3.3 1.3 8.3 2.1 17.8zM46.5 334c-.9 47-1.5 103.5-1.3 125.5.2 29-.1 41-1 43.5-2 6.1-.3-163.2 2.5-241 .4-11.8.9-19.7 1.1-17.5.2 2.2-.4 42.5-1.3 89.5zm708.2-74.8c-.2 3.5-.3.9-.3-5.7 0-6.6.1-9.4.3-6.3.2 3.2.2 8.6 0 12zm27 25c-.8 44.9-2.6 89.2-3.7 93.3-.5 1.7-.9-17.9-.9-44.6-.1-41.3.2-50 1.9-65.5 1.1-9.8 2-18.5 2-19.2 0-.6.3-1.2.7-1.2.3 0 .3 16.8 0 37.2zm-756.1-1c-.3 11.2-1 22.1-1.6 24.3-.7 3.1-.8 1.4-.5-7 1-23.9 1.8-37.5 2.3-37.5.3 0 .2 9.1-.2 20.2zm7.1-7c-.3.8-.6.5-.6-.6-.1-1.1.2-1.7.5-1.3.3.3.4 1.2.1 1.9zm-2.1 22.1c-1.8 18.9-2.7 26-3.1 25.5-.6-.6 1.4-27.4 2.6-36.2 2-13.7 2.3-8.3.5 10.7zm6.1 6.4c-.3 1-.5.2-.5-1.7s.2-2.7.5-1.8c.2 1 .2 2.6 0 3.5zm4.4 52.8c-.6 27.9-1.2 60.3-1.2 71.9-.2 20.3-.2 20.7-1 9.1-2.2-34.8-.1-135 2.8-132.1.3.2 0 23.2-.6 51.1zM766.9 330c.7 9.9.6 16.4-.7 31l-1.7 18.5-.3-12.5c-.3-12.4.8-52.4 1.4-50.5.2.5.8 6.6 1.3 13.5zm7 29.2-.2 27.3-.9-17c-.8-14.9-.3-37.5.8-37.5.2 0 .3 12.3.3 27.2zM30 365.7c-1.3 9.5-2.8 17.3-3.2 17.3-.5 0-.6-1.7-.3-3.8.2-2 .7-7.8 1-12.7.3-5 1.3-14.6 2.3-21.5l1.7-12.5.5 8c.4 5.6-.2 13.2-2 25.2zm2.5 14c-.3 3.8-1 16.2-1.6 27.8-.6 11.5-1.6 28.4-2.3 37.5l-1.3 16.5-.1-27.5c-.2-24.6.1-29.2 2.3-43.5 1.3-8.8 2.5-16.3 2.5-16.8 0-.4.3-.7.6-.7s.3 3-.1 6.7zm738.4 39c.1 19.9-.5 23.8-3 19.1-1.3-2.4-.6-40.3.9-48.3.7-3.9.7-3.9 1.3 2.5.4 3.6.7 15.6.8 26.7zm-13 10.4c-.6 11.8-.8 27.9-.5 35.9.5 11.4.3 15.1-.8 17.5-1.4 2.8-1.4 2.5-1.5-6.5-.1-11.7 1.8-61.2 2.5-65.9 1.2-7.6 1.3-1.2.3 19zM22.8 476c0 12.9-.3 18.8-.8 16-.8-4.4-1.3-25.1-1-36 .2-4.3.4-5 1-3 .4 1.4.8 11.7.8 23zm12.5-3.5c.3 12.9.2 17-.3 11.5-.8-8.8-1.3-32.7-.6-31.9.2.2.6 9.4.9 20.4zm-.9 40.1c1.8 14.7 2 22.8.7 20.4-1.2-2-2.9-18.9-3.5-33.5-.6-13.3 0-10.7 2.8 13.1zm-14 12.1c-.3 5.1-.9 9.3-1.4 9.3-1.3 0-3.3-15.2-2.1-16 .6-.3 1.5-3.8 1.8-7.6l.7-6.9.8 6c.4 3.3.5 10.2.2 15.2zM413 505.9c0 2-4.4 2.4-25.2 2.6-21.7.2-30.1-.7-17.2-2 3.8-.3 7.8-.7 8.9-.9 4.9-.8 33.5-.5 33.5.3zm-81.5 2.1c-5.5 2.3-47.2 9-61.8 10-8.7.5-20.2 1.8-25.5 2.9-6.9 1.4-16 2.1-31.2 2.4-12.2.3-35.3 1.9-53.3 3.7-34.6 3.3-36.4 3.3-58.2-1.7-8.7-2-7.7-2.4 11.2-5.2 27.5-4 47.1-5.4 104.3-7.6 33.5-1.3 49.6-2.2 85-4.8 9.9-.8 31.4-.5 29.5.3zm358.5.9c27.3 2.3 71.1 8.8 73 10.8.8.8-10.9-.6-27.5-3.2-31.1-5-56.9-6.5-105-5.9-42.5.5-57.3 1.1-77.5 3-12.8 1.3-22.6 1.5-44 1-24.7-.5-52.3-2.5-53.6-3.9-.5-.4 4.9-.9 29.6-2.7 16.3-1.2 189.2-.4 205 .9zM45 522.5c-1.2 1.9-1.8 3.9-1.5 4.5.7 1.2-1.2 4-2.6 4-1.6 0-1.1-11.7.5-12.3.8-.3 2.2-2.7 3.2-5.4l1.9-4.8.3 5.3c.2 4-.2 6.1-1.8 8.7zm310.5-12.6c1.4.6.5 1-3.5 1.5-3 .4-12 2-20 3.7-8 1.6-17.2 2.9-20.5 2.8-10.2-.1-7.1-.9 31-7.8 6.3-1.1 10.4-1.2 13-.2zm25.8 5.2c-1.7 1.5-36.7 4.8-43.3 4.1l-6.5-.8 9.1-1.7c17.7-3.4 27.2-4.3 34.5-3.3 3.8.5 6.6 1.3 6.2 1.7zm80.2.4c9.9.8 20.5 1.5 23.5 1.6 5.1.1 5.3.2 2 .9-17.6 4.1-67.2 6.4-95.5 4.5-11-.7-20.2-1.4-20.5-1.5-.3-.1 12.3-2 28-4.1 30.6-4.1 29.8-4 62.5-1.4zm243 .5c3.7 1.2-48 .3-54-1.1-2.5-.5 6.4-.7 23.5-.4 15.1.2 28.9.9 30.5 1.5zm-78.5-.3c18.4 1.3 5 2.4-35.1 3-29.4.5-39.8.3-40.3-.5-.5-.9.9-1.2 4.6-1.3 2.9-.1 11.6-.5 19.3-.8 19.9-1.1 40.7-1.2 51.5-.4zm142 .3c0 .5-.6 1-1.4 1-.8 0-1.8-.5-2.1-1-.3-.6.3-1 1.4-1 1.2 0 2.1.4 2.1 1zM30.7 529.2c.9 5.3.3 7.8-1.7 7.8-.3 0-.6-4.6-.6-10.3-.2-10.5.4-9.9 2.3 2.5zm41-8.1c9.7 1.7 7.9 3.3-2.9 2.5-6.9-.5-10.5-.3-14.1.8-4.4 1.3-4.8 1.3-4.5-.2.2-1.1 2-2.1 4.8-2.9 5.9-1.5 9-1.5 16.7-.2zm595.2.9c2.6 1.4-12.3 3.2-19.5 2.4-15.1-1.6-14.1-2 9.1-3.7 4.4-.3 8.2.2 10.4 1.3zm67.6-1c11.8.8 24.8 3 26.3 4.4.3.3-.3.6-1.4.7-1 0-7 .6-13.3 1.3l-11.3 1.2-14.2-3.3c-21.5-5.1-21.6-5.1-9.6-5.2 5.8 0 16.4.4 23.5.9zm-437 1.6c-2.8.7-9 1.3-14 1.3l-9-.1 5-1.3c2.8-.7 9.1-1.3 14-1.3h9l-5 1.4zm23.5-.6c0 .5-1.9 1-4.2.9-3.7-.1-3.9-.2-1.8-.9 3.6-1.2 6-1.2 6 0zm368.6.5c2.7.8 6.6 1.5 8.6 1.5 4.1 0 21.9 3.8 23.1 5 .4.4-6.1 1-14.5 1.3-12.2.5-17.8.3-27.5-1.1-6.8-1-12.5-2.1-12.8-2.4-.3-.3 2-1 5-1.7 3.5-.8 5.5-1.8 5.5-2.7 0-1.9 6.2-1.9 12.6.1zm-322.7 2.1c.2.2-7 .3-16 .2-11-.1-14.8-.3-11.4-.8 4.7-.7 26.5-.2 27.4.6zm-273.6 1.9c7.9 1.8 8.2 2.5 1.1 2.5-7.3 0-14.4-1.8-12.3-3.1 1.9-1.2 4.4-1.1 11.2.6zm689.2-.5c-.3.5-1.5 1.5-2.6 2-1.5.8-1.9.7-1.9-.4 0-1.3 1.4-2.1 4.3-2.5.5 0 .5.3.2.9zm-718.9.7c-.7.7-11.4 4.3-12.8 4.3-.5 0-.8-.4-.8-.9s2.4-1.5 5.3-2.4c5.6-1.7 9.5-2.1 8.3-1zm160.4.2c0 .5-1.9 1.1-4.2 1.5-14.8 2-65.9 4.3-64.3 2.8 2.7-2.5 68.5-6.6 68.5-4.3zm318.7-.2c-1.5 1.4-38.3 4.1-49.5 3.6-6.2-.4-11-.8-10.7-1.1.9-.9 32.2-2.9 46.9-3.1 7.7 0 13.6.2 13.3.6zm-272.2 1.4c-3.5 1.1-31.5 2.7-31.5 1.8 0-1.1 13.5-2.6 24-2.7 7.9 0 9.8.2 7.5.9zm307.1.5c-3.2.8-13.8 2.8-23.5 4.5-17.5 3.1-17.8 3.1-39.1 2.3l-21.5-.8 17.5-.7c9.6-.3 22.3-1.4 28.1-2.3 12.2-1.9 34.4-4.3 40.4-4.4 3.7 0 3.6.1-1.9 1.4zm-502.3.1c-.7.2-1.9.2-2.5 0-.7-.3-.2-.5 1.2-.5s1.9.2 1.3.5zm318 .4c-11.3 2-35.4 3.1-53.3 2.5-32.2-1-48.8-2-44.5-2.6 5.8-.7 102.4-.6 97.8.1zm243.1 1.5c7.2.8 13.2 1.6 13.3 1.8.2.2-4.3.7-9.9 1-5.7.4-16.6 1.4-24.3 2.2-14.5 1.4-57.4 2-56.1.7.4-.4 9.1-2.4 19.4-4.5 17.5-3.5 19.5-3.7 31.7-3.2 7.2.3 18.8 1.2 25.9 2zm24.5-1c.2.2-1.7.4-4.2.4-2.6 0-4.7-.5-4.7-1 0-.9 7.8-.4 8.9.6zm-231.9.3c-1.4.4-2.5 1.3-2.5 2.1 0 1.3-2.3 1.4-14.5 1.1-8-.2-14.6-.4-14.8-.6-.4-.3 26.5-3.2 30.8-3.3 3 0 3.2.1 1 .7zm345.7.7c-.3.3-1.2.4-1.9.1-.8-.3-.5-.6.6-.6 1.1-.1 1.7.2 1.3.5zM466 532c1 .6-3.5.9-13.5.8-11.9-.1-13.5-.3-8-.8 11.3-1 19.9-1 21.5 0zm302 0c0 .5-1.7.9-3.7.9-3.8-.1-3.8-.1-.8-.9 4.3-1.1 4.5-1.1 4.5 0zm-668 1.8c11.5 1.4 4 2.4-9.5 1.3-6.9-.6-16.1-1.2-20.3-1.2-6.6-.2-7.1-.3-3.7-1 4.4-.8 23.4-.3 33.5.9zm190.3-.1c-4.6.2-12 .2-16.5 0-4.6-.1-.9-.3 8.2-.3s12.8.2 8.3.3zm424.8 3c12.9.8 10.8 1.7-9 3.7-16.9 1.8-30 2-44.1.7-5.2-.5-15.3-1.3-22.5-1.7-11.9-.7-12.5-.8-7.5-1.6 17-2.4 55.7-2.9 83.1-1.1zm81.4-.7c-.4.6-5.5 1-12 1s-11.6-.4-12-1c-.4-.6 3.8-1 12-1s12.4.4 12 1zm-353 2.1c8.8.6 16.3 1.5 16.7 1.8.7.6-87.5 4.3-95.7 4.1-2.9-.1-2.9-.2-.7-1.1 3.8-1.5 2-3.4-3.9-3.9-3-.3 2.8-.7 13.1-1 34.9-1 54.5-1 70.5.1zm52.8.6c-1.3.2-3.5.2-5 0-1.6-.2-.5-.4 2.2-.4 2.8 0 4 .2 2.8.4zm-163.5 1.9c10 .4 18.5 1 18.7 1.4.3.4-4.1 1.3-9.8 2-14.7 1.8-46.3.2-62.2-3.1-2.9-.7 15.5-1.6 24.5-1.3 5.8.2 18.7.6 28.8 1zm-276.3.4c-.3.5-2.2 1-4.1 1-2.1 0-3.3-.4-2.9-1 .3-.6 2.2-1 4.1-1 2.1 0 3.3.4 2.9 1zm75.5 1c10 .6 9.7.7-7.2.8-11.3.1-17.8-.2-17.8-.8 0-1.1 8.9-1.1 25 0zm146.4 1.7 14.1 2.8-20.5.7c-11.3.4-43.4 1.2-71.5 1.7l-51 1-20.5 3.6c-24.3 4.3-41.5 5.3-56.6 3.5-17.5-2-17-2.6 2.6-3.4 22-.8 46.5-2.8 76.5-6.1 13.8-1.5 36.8-3 61.5-4 21.7-.9 40.4-1.7 41.5-1.9 5.3-.9 10.8-.4 23.9 2.1zm-209.5.7c-.2.2-3.3.6-6.9 1-4.4.4-6 .3-5-.4 1.4-.9 12.9-1.5 11.9-.6zm49.6 1.7c10.9.1 2.1 1.7-16 2.8-29.6 1.9-53.5 2.5-53.5 1.4 0-.6 4.7-1.3 10.8-1.7 5.9-.4 13.9-1.3 17.7-2.1 4.8-.9 11.4-1.2 21-.9 7.7.2 16.7.4 20 .5zm-78 2.8c.3.5.1 1.2-.5 1.6-.5.3-1-.1-1-.9 0-1.8.6-2.1 1.5-.7zM46 550c0 .5-.4 1-1 1-.5 0-1-.5-1-1 0-.6.5-1 1-1 .6 0 1 .4 1 1z"/></svg>