<?xml version="1.0" encoding="UTF-8"?>
<svg xmlns="http://www.w3.org/2000/svg" xmlns:xlink="http://www.w3.org/1999/xlink" width="500px" height="200px" viewBox="0 0 500 200" version="1.1">
<g id="surface1">
<path style=" stroke:none;fill-rule:nonzero;fill:rgb(0%,0%,0%);fill-opacity:1;" d="M 459.714844 13.609375 C 459.46875 13.707031 459.285156 14.394531 459.285156 15.078125 C 459.285156 16.546875 459.46875 16.546875 450.441406 15.765625 C 441.414062 15.015625 379.933594 14.820312 328.453125 15.375 C 286.0625 15.863281 279.660156 15.863281 240.011719 15.667969 C 223.664062 15.570312 213.722656 15.667969 208.296875 15.929688 C 203.050781 16.222656 186.765625 16.386719 160.414062 16.449219 C 112.898438 16.582031 94.96875 17.136719 77.769531 18.964844 C 73.253906 19.453125 68.679688 19.648438 60.382812 19.714844 C 53.917969 19.78125 48.0625 19.976562 46.660156 20.203125 C 41.660156 21.019531 37.816406 21.964844 37.816406 22.390625 C 37.816406 22.71875 36.902344 22.847656 34.402344 22.847656 L 31.046875 22.847656 L 31.230469 20.140625 C 31.351562 17.917969 31.230469 17.460938 30.496094 17.460938 C 29.765625 17.460938 29.519531 18.015625 29.398438 20.140625 L 29.214844 22.847656 L 26.960938 22.878906 C 25.738281 22.914062 24.277344 22.945312 23.789062 22.976562 C 22.691406 23.011719 20.800781 26.113281 20.800781 27.972656 C 20.738281 29.082031 20.980469 29.375 21.773438 29.375 C 22.691406 29.375 22.75 29.996094 22.386719 36.621094 C 22.078125 41.941406 21.652344 44.75 20.800781 47.035156 C 19.089844 51.40625 17.808594 57.023438 17.078125 63.320312 C 16.710938 66.292969 16.042969 70.601562 15.554688 72.949219 C 13.359375 83.621094 11.953125 98.246094 10.980469 121.617188 C 10.367188 135.714844 10.0625 139.109375 8.234375 150.304688 C 6.097656 163.6875 6.585938 170.054688 10.492188 176.972656 C 11.527344 178.898438 13.417969 178.441406 13.417969 176.320312 C 13.417969 175.832031 13.601562 175.078125 13.847656 174.621094 C 14.210938 173.90625 14.332031 174.003906 14.882812 175.40625 C 15.554688 177.039062 17.078125 177.886719 17.078125 176.613281 C 17.078125 176.089844 17.382812 175.960938 18.480469 176.058594 C 19.519531 176.125 19.824219 176.386719 19.824219 177.101562 C 19.824219 177.625 20.1875 178.375 20.617188 178.769531 C 21.46875 179.617188 21.59375 179.582031 17.261719 179.519531 C 13.480469 179.453125 12.441406 179.683594 13.480469 180.367188 C 13.90625 180.628906 15.308594 180.824219 17.078125 180.824219 C 18.664062 180.824219 21.226562 180.921875 22.75 181.019531 L 25.496094 181.25 L 26.59375 183.566406 C 28.363281 187.515625 29.886719 187.710938 29.886719 183.957031 L 29.886719 181.574219 L 36.78125 182.226562 C 41.84375 182.71875 46.660156 182.878906 55.503906 182.878906 C 66.421875 182.914062 68.253906 182.847656 78.378906 181.867188 C 90.820312 180.660156 96.675781 180.496094 151.875 179.84375 C 168.464844 179.648438 189.082031 179.355469 197.621094 179.191406 C 206.160156 179.027344 227.753906 178.667969 245.5 178.375 C 263.3125 178.113281 279.230469 177.820312 280.878906 177.722656 C 284.539062 177.496094 352.179688 176.777344 362.609375 176.84375 C 366.636719 176.875 377.980469 177.136719 387.863281 177.429688 C 412.808594 178.179688 428.117188 177.953125 444.648438 176.613281 C 458.859375 175.4375 462.214844 175.339844 467.824219 175.929688 C 473.011719 176.449219 483.621094 176.449219 488.378906 175.929688 C 492.222656 175.503906 494.722656 174.851562 493.992188 174.460938 C 493.320312 174.101562 486.0625 173.644531 481 173.644531 L 476.121094 173.644531 L 478.742188 172.46875 C 480.328125 171.71875 481.121094 171.164062 480.757812 170.96875 C 480.453125 170.804688 478.558594 170.378906 476.609375 170.054688 L 473.011719 169.464844 L 473.070312 167.410156 C 473.679688 152.101562 474.535156 137.445312 474.777344 136.921875 C 475.144531 136.207031 476.609375 124.945312 477.644531 114.730469 C 478.742188 103.5 479.964844 53.203125 479.351562 41.453125 C 479.230469 38.480469 479.351562 32.867188 479.660156 28.953125 C 480.085938 22.816406 480.023438 21.867188 479.292969 21.867188 C 478.195312 21.867188 477.585938 24.9375 477.585938 29.996094 C 477.585938 31.757812 477.339844 32.964844 477.035156 32.769531 C 475.695312 31.988281 473.742188 26.730469 473.4375 23.273438 L 473.191406 19.617188 L 478.558594 19.519531 C 482.890625 19.453125 483.988281 19.324219 483.988281 18.929688 C 483.988281 18.671875 483.378906 18.410156 482.648438 18.34375 C 481.914062 18.277344 481 18.015625 480.632812 17.757812 C 479.660156 17.167969 478.195312 17.167969 478.195312 17.789062 C 478.195312 18.507812 474.167969 18.410156 467.214844 17.496094 L 461.421875 16.746094 L 461.238281 15.308594 C 461.054688 13.839844 460.445312 13.1875 459.714844 13.609375 Z M 438.546875 16.320312 C 448.308594 16.710938 456.90625 17.300781 458.066406 17.691406 C 459.042969 17.984375 454.101562 17.917969 408.964844 17.101562 C 393.535156 16.84375 371.453125 16.484375 359.867188 16.351562 C 341.140625 16.125 343.824219 16.089844 384.875 16.058594 C 410.1875 16.027344 434.339844 16.15625 438.546875 16.320312 Z M 305.457031 16.875 C 304.179688 16.941406 302.105469 16.941406 300.882812 16.875 C 299.601562 16.808594 300.640625 16.746094 303.140625 16.746094 C 305.640625 16.746094 306.679688 16.808594 305.457031 16.875 Z M 169.257812 17.59375 L 175.359375 17.789062 L 169.867188 18.050781 C 156.9375 18.636719 145.226562 18.929688 121.683594 19.257812 C 107.960938 19.421875 93.808594 19.648438 90.269531 19.714844 C 81.246094 19.910156 83.988281 19.421875 95.457031 18.800781 C 117.167969 17.65625 153.523438 17.039062 169.257812 17.59375 Z M 284.84375 17.59375 C 284.84375 17.722656 282.707031 17.953125 280.085938 18.082031 C 277.460938 18.179688 271.910156 18.570312 267.765625 18.929688 C 260.6875 19.550781 259.285156 19.582031 247.941406 19.226562 C 239.890625 18.964844 223.96875 18.898438 200.976562 19.027344 C 181.882812 19.125 166.757812 19.125 167.429688 19.0625 C 168.101562 18.996094 173.164062 18.703125 178.714844 18.375 C 186.214844 17.984375 197.253906 17.789062 222.324219 17.625 C 280.269531 17.300781 284.84375 17.300781 284.84375 17.59375 Z M 390.363281 17.917969 C 393.472656 18.082031 388.289062 18.214844 374.503906 18.375 C 357.121094 18.570312 347.851562 18.472656 327.539062 17.886719 C 326.015625 17.855469 327.964844 17.722656 331.808594 17.625 C 340.042969 17.363281 383.714844 17.59375 390.363281 17.917969 Z M 320.21875 18.734375 C 332.175781 19.191406 331.929688 19.226562 305.582031 20.238281 C 289.601562 20.855469 286.613281 20.855469 278.804688 20.496094 C 273.191406 20.238281 270.449219 20.007812 271.179688 19.84375 C 273.316406 19.355469 294.175781 18.34375 302.226562 18.34375 C 306.617188 18.34375 314.667969 18.507812 320.21875 18.734375 Z M 368.039062 19.941406 C 372.796875 19.976562 376.089844 20.039062 375.417969 20.105469 C 374.75 20.171875 361.328125 20.726562 345.53125 21.347656 C 319.730469 22.359375 316.132812 22.421875 309.851562 22.066406 C 302.226562 21.671875 302.042969 21.214844 309.421875 21.183594 C 311.863281 21.183594 322.476562 20.824219 333.027344 20.398438 C 343.582031 19.976562 353.886719 19.683594 355.839844 19.78125 C 357.792969 19.84375 363.28125 19.941406 368.039062 19.941406 Z M 458.675781 21.542969 C 458.675781 23.828125 458.980469 23.730469 450.746094 24.644531 C 445.625 25.199219 445.441406 25.199219 441.535156 24.546875 C 434.277344 23.335938 426.898438 23.078125 406.28125 23.238281 C 384.8125 23.402344 384.8125 23.566406 406.832031 21.378906 C 420.433594 20.007812 427.445312 19.714844 445.746094 19.617188 L 458.675781 19.582031 Z M 470.507812 20.074219 C 470.082031 20.660156 469.777344 20.660156 467.824219 20.074219 L 466.300781 19.617188 L 468.558594 19.582031 C 470.324219 19.582031 470.753906 19.683594 470.507812 20.074219 Z M 241.171875 20.140625 C 245.804688 20.238281 249.222656 20.433594 248.734375 20.5625 C 248.308594 20.695312 245.683594 20.988281 242.941406 21.214844 C 238.914062 21.574219 234.460938 21.574219 219.457031 21.25 C 209.269531 21.050781 197.683594 20.757812 193.65625 20.628906 L 186.335938 20.398438 L 194.875 20.238281 C 208.476562 19.941406 232.082031 19.878906 241.171875 20.140625 Z M 467.398438 21.214844 C 468.3125 21.445312 469.046875 21.769531 469.046875 21.902344 C 469.046875 22.128906 463.128906 23.175781 461.785156 23.175781 C 461.359375 23.175781 461.117188 22.519531 461.117188 21.542969 L 461.117188 19.941406 L 463.433594 20.367188 C 464.652344 20.628906 466.421875 20.988281 467.398438 21.214844 Z M 402.867188 20.53125 C 402.132812 20.855469 387.433594 22.359375 379.992188 22.847656 C 372.246094 23.335938 339.738281 23.664062 337.90625 23.238281 L 336.382812 22.878906 L 337.90625 22.878906 C 338.761719 22.847656 350.167969 22.421875 363.21875 21.867188 C 376.335938 21.3125 390.421875 20.757812 394.632812 20.59375 C 398.839844 20.464844 402.5 20.300781 402.867188 20.269531 C 403.234375 20.269531 403.234375 20.335938 402.867188 20.53125 Z M 60.6875 20.855469 C 60.078125 21.152344 47.027344 22.519531 45.015625 22.519531 C 43.367188 22.519531 43.671875 21.902344 45.5 21.542969 C 48.796875 20.855469 61.847656 20.269531 60.6875 20.855469 Z M 268.617188 21.050781 C 278.378906 21.378906 275.449219 21.902344 262.578125 22.097656 C 250.015625 22.324219 247.390625 22.03125 254.957031 21.214844 C 257.824219 20.890625 260.566406 20.695312 261.054688 20.757812 C 261.542969 20.792969 264.957031 20.953125 268.617188 21.050781 Z M 79.597656 21.410156 C 76.609375 21.640625 71.121094 21.902344 67.398438 22 L 60.6875 22.195312 L 64.957031 21.574219 C 68.128906 21.117188 71.300781 20.953125 77.15625 20.953125 L 85.085938 20.988281 Z M 193.351562 21.671875 C 205.246094 21.964844 217.628906 22.292969 220.800781 22.421875 L 226.59375 22.652344 L 220.492188 23.109375 C 211.953125 23.761719 182.800781 23.730469 160.109375 23.078125 C 150.046875 22.75 133.332031 22.519531 122.964844 22.519531 C 112.59375 22.519531 104.300781 22.421875 104.484375 22.324219 C 104.726562 22.195312 108.628906 21.835938 113.265625 21.507812 C 120.523438 20.988281 125.039062 20.921875 146.691406 21.050781 C 160.476562 21.117188 181.457031 21.378906 193.351562 21.671875 Z M 91.0625 22.097656 C 90.636719 22.164062 89.90625 22.164062 89.539062 22.097656 C 89.113281 22 89.417969 21.933594 90.269531 21.933594 C 91.125 21.933594 91.429688 22 91.0625 22.097656 Z M 41.78125 22.519531 C 41.597656 22.683594 41.109375 22.847656 40.804688 22.847656 C 40.4375 22.847656 40.378906 22.683594 40.5625 22.519531 C 40.742188 22.324219 41.230469 22.195312 41.535156 22.195312 C 41.902344 22.195312 41.964844 22.324219 41.78125 22.519531 Z M 297.957031 22.488281 L 301.617188 22.683594 L 298.382812 22.945312 C 294.480469 23.238281 276.914062 22.816406 279.660156 22.488281 C 281.976562 22.195312 293.199219 22.195312 297.957031 22.488281 Z M 251.84375 23.011719 C 251.660156 23.078125 246.90625 23.535156 241.230469 23.988281 C 235.5 24.445312 227.019531 25.199219 222.324219 25.65625 L 213.785156 26.503906 L 173.832031 26.308594 C 136.75 26.113281 133.515625 26.046875 129.125 25.425781 C 126.503906 25.066406 121.5625 24.546875 118.144531 24.285156 C 114.730469 24.023438 111.863281 23.730469 111.679688 23.632812 C 111.007812 23.273438 139.859375 23.566406 159.804688 24.152344 C 194.386719 25.164062 212.078125 25.003906 229.398438 23.535156 C 235.558594 23.011719 252.578125 22.585938 251.84375 23.011719 Z M 471.484375 24.382812 C 471.484375 25.066406 472.035156 26.929688 472.644531 28.558594 C 473.558594 30.976562 473.621094 32.183594 473.253906 35.25 C 473.011719 37.308594 472.765625 40.996094 472.703125 43.410156 C 472.644531 45.828125 472.523438 47.652344 472.398438 47.492188 C 472.277344 47.296875 471.851562 44.292969 471.484375 40.800781 C 470.691406 33.226562 469.472656 27.742188 468.433594 27.417969 C 467.886719 27.253906 467.886719 26.863281 468.433594 25.753906 C 469.839844 22.976562 471.484375 22.261719 471.484375 24.382812 Z M 292.46875 24.121094 L 303.445312 24.316406 L 297.042969 24.578125 C 293.503906 24.707031 283.136719 25.199219 273.925781 25.65625 C 262.214844 26.210938 253.066406 26.4375 243.488281 26.4375 C 235.925781 26.4375 229.886719 26.371094 230.007812 26.273438 C 230.191406 26.210938 236.230469 25.621094 243.429688 25.003906 C 250.625 24.382812 257.152344 23.792969 258.003906 23.695312 C 259.410156 23.566406 265.75 23.632812 292.46875 24.121094 Z M 466.238281 26.175781 C 465.507812 27.679688 464.652344 29.308594 464.410156 29.867188 C 463.984375 30.777344 463.921875 30.746094 463.371094 29.113281 C 463.007812 28.003906 462.457031 27.417969 461.910156 27.417969 C 461.238281 27.417969 461.117188 27.027344 461.238281 25.882812 C 461.421875 24.347656 461.421875 24.347656 464.164062 23.957031 C 465.691406 23.730469 467.09375 23.566406 467.277344 23.535156 C 467.460938 23.5 467.03125 24.707031 466.238281 26.175781 Z M 26.835938 25.359375 C 26.777344 26.242188 26.410156 27.285156 25.921875 27.742188 C 25.128906 28.496094 25.070312 28.398438 25.007812 26.175781 C 25.007812 24.316406 25.191406 23.828125 25.921875 23.828125 C 26.59375 23.828125 26.835938 24.21875 26.835938 25.359375 Z M 318.269531 24.054688 C 317.65625 24.121094 316.558594 24.121094 315.828125 24.054688 C 315.035156 23.988281 315.523438 23.925781 316.863281 23.925781 C 318.207031 23.890625 318.816406 23.957031 318.269531 24.054688 Z M 104.910156 24.839844 C 118.390625 25.328125 121.925781 25.816406 110.398438 25.621094 C 105.519531 25.523438 94.90625 25.359375 86.734375 25.261719 C 78.621094 25.132812 72.09375 24.9375 72.277344 24.839844 C 73.558594 24.1875 85.515625 24.1875 104.910156 24.839844 Z M 430.070312 24.480469 C 433.546875 24.675781 437.511719 25.003906 438.851562 25.199219 C 441.171875 25.523438 441.230469 25.558594 439.769531 25.816406 C 437.449219 26.242188 419.03125 27.679688 410.492188 28.101562 C 406.28125 28.332031 396.402344 28.496094 388.53125 28.496094 C 376.089844 28.460938 371.515625 28.296875 354.375 27.253906 C 337.601562 26.242188 331.746094 26.015625 316.253906 25.851562 C 287.832031 25.523438 302.53125 25.132812 348.277344 24.96875 C 369.257812 24.902344 389.691406 24.707031 393.71875 24.546875 C 404.390625 24.121094 422.8125 24.089844 430.070312 24.480469 Z M 458.371094 27.972656 C 458.1875 29.734375 457.457031 36.394531 456.847656 42.757812 C 456.175781 49.121094 455.078125 59.40625 454.46875 65.605469 C 453.246094 76.476562 451.96875 91.878906 451.96875 94.851562 C 451.96875 95.894531 452.210938 96.289062 452.820312 96.289062 C 454.039062 96.289062 454.222656 95.863281 455.320312 89.105469 C 455.871094 85.777344 456.542969 82.023438 456.785156 80.785156 C 456.96875 79.511719 457.152344 84.375 457.152344 91.554688 C 457.152344 103.304688 457.273438 105.199219 458.554688 110.648438 C 459.894531 116.261719 459.957031 117.4375 459.589844 126.804688 C 459.285156 134.835938 458.921875 137.773438 457.945312 141.003906 C 455.75 147.859375 456.359375 160.292969 458.859375 161.140625 C 459.164062 161.242188 460.140625 160.914062 460.933594 160.390625 L 462.335938 159.445312 L 462.335938 162.609375 C 462.335938 165.222656 462.519531 165.808594 463.25 165.808594 C 463.921875 165.808594 464.164062 166.167969 464.164062 167.050781 L 464.164062 168.289062 L 457.335938 167.539062 C 449.769531 166.722656 435.375 165.710938 422.996094 165.125 C 417.992188 164.894531 394.632812 164.699219 359.867188 164.601562 C 303.75 164.4375 292.039062 164.601562 273.253906 165.679688 C 265.082031 166.167969 254.527344 166.332031 253.917969 166.003906 C 253.734375 165.941406 254.222656 165.546875 254.957031 165.15625 C 255.625 164.796875 256.054688 164.339844 255.871094 164.179688 C 255.261719 163.65625 232.691406 163.785156 223.054688 164.375 C 218.296875 164.667969 212.871094 164.796875 211.039062 164.699219 C 204.820312 164.308594 191.398438 164.472656 172.003906 165.125 C 161.453125 165.515625 144.433594 165.941406 134.1875 166.136719 C 95.945312 166.820312 81.246094 167.472656 61.421875 169.269531 C 52.636719 170.085938 52.332031 170.085938 48.367188 169.5625 C 43 168.84375 36.351562 168.617188 32.996094 169.007812 L 30.375 169.335938 L 30.742188 161.957031 C 32.511719 128.992188 33.121094 118.90625 34.15625 102.324219 C 35.375 84.046875 37.085938 59.046875 38.488281 41.125 C 39.097656 33.03125 39.339844 31.824219 41.535156 27.320312 C 42.148438 26.113281 42.148438 26.113281 45.320312 26.113281 C 48.917969 26.113281 50.078125 26.4375 56.417969 29.179688 C 62.578125 31.824219 65.875 32.410156 73.496094 32.25 C 79.109375 32.085938 80.695312 31.890625 92.710938 29.703125 C 108.691406 26.828125 112.59375 26.601562 126.5625 27.710938 C 163.707031 30.714844 171.210938 31.136719 185.421875 31.136719 C 198.476562 31.105469 204.269531 30.84375 234.21875 28.855469 C 253.492188 27.582031 264.53125 27.253906 296.433594 26.929688 C 321.925781 26.699219 333.820312 26.992188 356.878906 28.460938 C 371.757812 29.410156 375.359375 29.539062 389.449219 29.507812 C 406.222656 29.507812 411.773438 29.246094 435.375 27.1875 L 445.320312 26.339844 L 447.027344 27.222656 C 449.648438 28.558594 451.113281 28.296875 449.160156 26.828125 C 448.613281 26.40625 448.308594 26.015625 448.367188 25.980469 C 448.671875 25.851562 456.847656 24.871094 457.945312 24.839844 C 458.492188 24.804688 458.617188 25.558594 458.371094 27.972656 Z M 88.015625 26.339844 C 95.945312 26.4375 102.347656 26.601562 102.164062 26.699219 C 101.617188 26.992188 83.988281 30.355469 80.207031 30.878906 C 77.769531 31.234375 74.839844 31.367188 71.363281 31.269531 C 67.03125 31.171875 65.628906 30.976562 62.761719 30.160156 C 58.980469 29.082031 52.515625 26.4375 52.515625 25.980469 C 52.453125 25.816406 56.785156 25.785156 63.007812 25.882812 C 68.742188 26.015625 80.023438 26.210938 88.015625 26.339844 Z M 37.085938 30.257812 C 36.71875 33.160156 34.582031 39.394531 33.789062 39.820312 C 32.996094 40.210938 34.644531 32.148438 36.046875 28.65625 C 37.085938 26.144531 37.574219 26.828125 37.085938 30.257812 Z M 187.558594 27.449219 C 200.304688 27.515625 198.597656 27.644531 173.832031 28.558594 C 160.964844 29.015625 158.828125 29.015625 152.789062 28.59375 C 149.128906 28.332031 144.859375 27.875 143.335938 27.613281 C 140.773438 27.125 141.871094 27.125 158.585938 27.253906 C 168.464844 27.351562 181.519531 27.449219 187.558594 27.449219 Z M 33.609375 29.277344 C 33.058594 29.765625 32.996094 29.703125 32.9375 28.855469 C 32.9375 28.296875 33.121094 27.742188 33.425781 27.613281 C 34.097656 27.222656 34.277344 28.65625 33.609375 29.277344 Z M 226.898438 28.265625 C 206.160156 29.605469 195.851562 30.027344 185.484375 30.027344 C 173.894531 29.996094 173.40625 29.570312 184.507812 29.210938 C 192.679688 28.984375 207.320312 28.199219 211.953125 27.777344 C 213.664062 27.613281 220.371094 27.484375 226.898438 27.484375 L 238.792969 27.484375 Z M 468.921875 36.621094 C 469.289062 39.363281 469.777344 43.28125 470.019531 45.335938 C 470.449219 49.710938 469.714844 65.28125 469.046875 65.28125 C 468.800781 65.28125 468.375 62.832031 468.191406 59.796875 C 467.582031 52.09375 466.667969 44.160156 465.933594 40.179688 C 465.386719 37.273438 465.386719 36.425781 466.300781 34.074219 C 466.910156 32.574219 467.582031 31.433594 467.824219 31.496094 C 468.070312 31.5625 468.558594 33.878906 468.921875 36.621094 Z M 27.753906 40.015625 C 27.265625 44.128906 26.835938 48.078125 26.777344 48.796875 C 26.714844 50.070312 26.65625 50.070312 26.226562 49.121094 C 25.433594 47.523438 25.554688 44.097656 26.472656 40.148438 C 26.960938 38.089844 27.570312 35.480469 27.753906 34.335938 C 28.605469 30.027344 28.605469 32.804688 27.753906 40.015625 Z M 462.398438 38.777344 C 461.910156 39.199219 461.785156 39.070312 461.726562 38.023438 C 461.726562 37.308594 461.96875 36.132812 462.214844 35.414062 C 462.640625 34.171875 462.640625 34.207031 462.824219 36.164062 C 462.945312 37.273438 462.703125 38.449219 462.398438 38.777344 Z M 476.304688 41.941406 C 476.363281 45.171875 474.65625 59.761719 474.230469 60.023438 C 473.804688 60.21875 474.351562 46.9375 474.960938 41.125 C 475.386719 36.949219 476.179688 37.4375 476.304688 41.941406 Z M 35.375 56.011719 C 33.851562 76.148438 31.960938 104.414062 31.046875 119.460938 C 30.679688 125.824219 30.191406 133.691406 29.949219 136.921875 L 29.460938 142.796875 L 29.398438 135.617188 C 29.339844 131.667969 29.582031 123.445312 29.886719 117.339844 C 30.191406 111.234375 30.925781 94.492188 31.410156 80.128906 C 32.386719 53.398438 32.691406 49.90625 34.765625 43.835938 C 35.4375 41.910156 35.988281 40.210938 35.988281 40.015625 C 35.988281 39.851562 36.109375 39.789062 36.292969 39.851562 C 36.414062 39.949219 36.046875 47.195312 35.375 56.011719 Z M 464.59375 46.25 C 464.472656 46.773438 464.347656 46.347656 464.347656 45.371094 C 464.347656 44.390625 464.472656 43.964844 464.59375 44.457031 C 464.714844 44.976562 464.714844 45.761719 464.59375 46.25 Z M 459.101562 50.003906 C 458.921875 50.265625 458.738281 50.167969 458.738281 49.808594 C 458.675781 49.449219 458.859375 49.253906 459.042969 49.382812 C 459.226562 49.480469 459.285156 49.777344 459.101562 50.003906 Z M 465.933594 68.542969 C 465.996094 74.515625 465.75 79.316406 465.507812 79.152344 C 465.203125 78.957031 464.472656 75.300781 463.921875 70.957031 C 462.945312 63.582031 462.945312 60.253906 463.984375 54.507812 L 464.347656 52.386719 L 465.140625 54.996094 C 465.628906 56.664062 465.933594 61.527344 465.933594 68.542969 Z M 476 73.277344 C 475.449219 76.3125 474.902344 78.890625 474.777344 78.957031 C 474.230469 79.28125 474.65625 74.550781 476.488281 60.382812 C 476.546875 59.761719 476.730469 61.132812 476.851562 63.484375 C 476.972656 65.898438 476.609375 70.109375 476 73.277344 Z M 21.105469 68.445312 C 20.859375 73.472656 20.25 78.988281 19.640625 81.4375 L 18.601562 85.679688 L 18.421875 77.683594 C 18.296875 71.089844 18.480469 68.871094 19.519531 64.953125 C 20.1875 62.34375 20.738281 60.089844 20.738281 59.960938 C 20.738281 59.828125 20.921875 59.730469 21.105469 59.730469 C 21.285156 59.730469 21.285156 63.648438 21.105469 68.445312 Z M 459.347656 69.914062 C 458.921875 70.796875 458.796875 70.402344 458.738281 67.890625 C 458.738281 66.195312 458.859375 63.746094 459.164062 62.503906 C 459.53125 60.382812 459.589844 60.546875 459.773438 64.527344 C 459.835938 66.910156 459.652344 69.359375 459.347656 69.914062 Z M 471.910156 77.09375 C 471.546875 92.273438 470.691406 102.421875 469.714844 103.890625 C 469.410156 104.285156 468.921875 102.292969 468.433594 99.0625 C 467.640625 93.871094 467.703125 92.859375 469.226562 81.304688 C 470.144531 74.550781 471.058594 67.238281 471.300781 65.019531 C 471.484375 62.832031 471.789062 61.035156 471.972656 61.035156 C 472.15625 61.035156 472.09375 68.28125 471.910156 77.09375 Z M 463.800781 83.167969 C 464.898438 89.53125 465.140625 102 464.164062 102.324219 C 463.800781 102.421875 463.433594 102.324219 463.3125 102.097656 C 462.945312 101.476562 462.152344 77.160156 462.519531 77.355469 C 462.703125 77.453125 463.3125 80.066406 463.800781 83.167969 Z M 28.363281 109.015625 C 27.8125 124.355469 27.449219 142.796875 27.570312 149.980469 C 27.691406 159.445312 27.507812 163.363281 26.960938 164.179688 C 25.738281 166.167969 26.777344 110.910156 28.484375 85.515625 C 28.726562 81.664062 29.035156 79.085938 29.15625 79.804688 C 29.277344 80.523438 28.910156 93.675781 28.363281 109.015625 Z M 460.324219 84.601562 C 460.199219 85.746094 460.140625 84.894531 460.140625 82.742188 C 460.140625 80.585938 460.199219 79.671875 460.324219 80.683594 C 460.445312 81.730469 460.445312 83.492188 460.324219 84.601562 Z M 476.792969 92.761719 C 476.304688 107.417969 475.207031 121.875 474.535156 123.214844 C 474.230469 123.769531 473.984375 117.371094 473.984375 108.65625 C 473.925781 95.175781 474.109375 92.335938 475.144531 87.277344 C 475.816406 84.078125 476.363281 81.242188 476.363281 81.011719 C 476.363281 80.816406 476.546875 80.621094 476.792969 80.621094 C 476.972656 80.621094 476.972656 86.105469 476.792969 92.761719 Z M 15.613281 92.4375 C 15.429688 96.089844 15.003906 99.648438 14.636719 100.367188 C 14.210938 101.378906 14.152344 100.824219 14.332031 98.082031 C 14.945312 90.28125 15.429688 85.84375 15.738281 85.84375 C 15.917969 85.84375 15.859375 88.8125 15.613281 92.4375 Z M 19.945312 90.152344 C 19.761719 90.410156 19.578125 90.3125 19.578125 89.957031 C 19.519531 89.597656 19.699219 89.398438 19.882812 89.53125 C 20.066406 89.628906 20.128906 89.921875 19.945312 90.152344 Z M 18.664062 97.363281 C 17.566406 103.535156 17.015625 105.851562 16.773438 105.6875 C 16.40625 105.492188 17.628906 96.746094 18.359375 93.871094 C 19.578125 89.398438 19.761719 91.164062 18.664062 97.363281 Z M 22.386719 99.453125 C 22.203125 99.78125 22.078125 99.519531 22.078125 98.898438 C 22.078125 98.277344 22.203125 98.015625 22.386719 98.3125 C 22.507812 98.636719 22.507812 99.160156 22.386719 99.453125 Z M 25.070312 116.6875 C 24.703125 125.792969 24.335938 136.367188 24.335938 140.15625 C 24.214844 146.78125 24.214844 146.910156 23.726562 143.125 C 22.386719 131.765625 23.664062 99.0625 25.433594 100.007812 C 25.617188 100.074219 25.433594 107.582031 25.070312 116.6875 Z M 467.765625 107.710938 C 468.191406 110.941406 468.128906 113.0625 467.335938 117.828125 L 466.300781 123.867188 L 466.117188 119.789062 C 465.933594 115.742188 466.605469 102.683594 466.972656 103.304688 C 467.09375 103.46875 467.460938 105.457031 467.765625 107.710938 Z M 472.035156 117.242188 L 471.910156 126.152344 L 471.363281 120.605469 C 470.875 115.742188 471.179688 108.363281 471.851562 108.363281 C 471.972656 108.363281 472.035156 112.378906 472.035156 117.242188 Z M 18.296875 119.363281 C 17.503906 122.464844 16.589844 125.011719 16.347656 125.011719 C 16.042969 125.011719 15.980469 124.457031 16.164062 123.769531 C 16.285156 123.117188 16.589844 121.222656 16.773438 119.625 C 16.957031 117.992188 17.566406 114.859375 18.175781 112.605469 L 19.214844 108.527344 L 19.519531 111.136719 C 19.761719 112.964844 19.394531 115.445312 18.296875 119.363281 Z M 19.824219 123.933594 C 19.640625 125.171875 19.214844 129.21875 18.847656 133.007812 C 18.480469 136.761719 17.871094 142.277344 17.445312 145.246094 L 16.652344 150.632812 L 16.589844 141.65625 C 16.46875 133.628906 16.652344 132.125 17.992188 127.457031 C 18.785156 124.585938 19.519531 122.136719 19.519531 121.976562 C 19.519531 121.84375 19.699219 121.746094 19.882812 121.746094 C 20.066406 121.746094 20.066406 122.726562 19.824219 123.933594 Z M 470.203125 136.664062 C 470.265625 143.15625 469.898438 144.429688 468.375 142.898438 C 467.582031 142.113281 468.007812 129.742188 468.921875 127.132812 C 469.351562 125.859375 469.351562 125.859375 469.714844 127.949219 C 469.960938 129.121094 470.144531 133.039062 470.203125 136.664062 Z M 462.273438 140.058594 C 461.910156 143.910156 461.785156 149.164062 461.96875 151.773438 C 462.273438 155.496094 462.152344 156.703125 461.480469 157.488281 C 460.628906 158.402344 460.628906 158.300781 460.566406 155.363281 C 460.507812 151.546875 461.664062 135.390625 462.09375 133.855469 C 462.824219 131.375 462.886719 133.464844 462.273438 140.058594 Z M 13.90625 155.363281 C 13.90625 159.574219 13.722656 161.5 13.417969 160.585938 C 12.929688 159.152344 12.625 152.394531 12.808594 148.835938 C 12.929688 147.433594 13.054688 147.207031 13.417969 147.859375 C 13.664062 148.316406 13.90625 151.675781 13.90625 155.363281 Z M 21.53125 154.222656 C 21.714844 158.433594 21.652344 159.769531 21.347656 157.976562 C 20.859375 155.105469 20.554688 147.304688 20.980469 147.5625 C 21.105469 147.628906 21.347656 150.632812 21.53125 154.222656 Z M 20.980469 167.3125 C 22.078125 172.109375 22.203125 174.753906 21.410156 173.96875 C 20.675781 173.316406 19.640625 167.800781 19.273438 163.035156 C 18.910156 158.695312 19.273438 159.542969 20.980469 167.3125 Z M 12.441406 171.261719 C 12.261719 172.925781 11.894531 174.296875 11.589844 174.296875 C 10.796875 174.296875 9.574219 169.335938 10.308594 169.074219 C 10.675781 168.976562 11.222656 167.832031 11.40625 166.59375 L 11.832031 164.339844 L 12.320312 166.300781 C 12.566406 167.375 12.625 169.628906 12.441406 171.261719 Z M 251.90625 165.125 C 251.90625 165.777344 249.222656 165.90625 236.535156 165.972656 C 223.300781 166.039062 218.175781 165.746094 226.042969 165.320312 C 228.363281 165.222656 230.800781 165.089844 231.472656 165.027344 C 234.460938 164.765625 251.90625 164.863281 251.90625 165.125 Z M 202.195312 165.808594 C 198.839844 166.558594 173.40625 168.746094 164.5 169.074219 C 159.195312 169.238281 152.179688 169.660156 148.949219 170.019531 C 144.738281 170.476562 139.1875 170.707031 129.917969 170.804688 C 122.476562 170.902344 108.386719 171.425781 97.40625 172.011719 C 76.304688 173.089844 75.207031 173.089844 61.910156 171.457031 C 56.601562 170.804688 57.210938 170.671875 68.742188 169.757812 C 85.515625 168.453125 97.46875 167.996094 132.355469 167.277344 C 152.789062 166.855469 162.609375 166.558594 184.203125 165.710938 C 190.242188 165.449219 203.355469 165.546875 202.195312 165.808594 Z M 420.859375 166.105469 C 437.511719 166.855469 464.226562 168.976562 465.386719 169.628906 C 465.875 169.890625 458.738281 169.433594 448.613281 168.585938 C 429.644531 166.953125 413.90625 166.460938 384.566406 166.660156 C 358.644531 166.820312 349.617188 167.015625 337.296875 167.636719 C 329.492188 168.0625 323.511719 168.128906 310.460938 167.964844 C 295.394531 167.800781 278.558594 167.148438 277.765625 166.691406 C 277.460938 166.558594 280.757812 166.398438 295.820312 165.808594 C 305.765625 165.417969 411.222656 165.679688 420.859375 166.105469 Z M 27.449219 170.542969 C 26.714844 171.164062 26.347656 171.816406 26.53125 172.011719 C 26.960938 172.402344 25.800781 173.316406 24.945312 173.316406 C 23.972656 173.316406 24.277344 169.5 25.25 169.300781 C 25.738281 169.203125 26.59375 168.421875 27.203125 167.539062 L 28.363281 165.972656 L 28.546875 167.703125 C 28.667969 169.007812 28.421875 169.695312 27.449219 170.542969 Z M 216.835938 166.429688 C 217.6875 166.625 217.140625 166.757812 214.699219 166.917969 C 212.871094 167.050781 207.378906 167.574219 202.5 168.128906 C 197.621094 168.648438 192.007812 169.074219 189.996094 169.042969 C 183.777344 169.007812 185.667969 168.746094 208.90625 166.496094 C 212.746094 166.136719 215.25 166.105469 216.835938 166.429688 Z M 232.570312 168.128906 C 231.535156 168.617188 210.1875 169.695312 206.160156 169.464844 L 202.195312 169.203125 L 207.746094 168.648438 C 218.542969 167.539062 224.335938 167.246094 228.789062 167.574219 C 231.105469 167.734375 232.816406 167.996094 232.570312 168.128906 Z M 281.488281 168.257812 C 287.527344 168.519531 293.992188 168.746094 295.820312 168.78125 C 298.933594 168.8125 299.054688 168.84375 297.042969 169.074219 C 286.308594 170.410156 256.054688 171.164062 238.792969 170.542969 C 232.082031 170.3125 226.472656 170.085938 226.289062 170.054688 C 226.105469 170.019531 233.789062 169.398438 243.367188 168.714844 C 262.03125 167.375 261.542969 167.410156 281.488281 168.257812 Z M 429.703125 168.421875 C 431.960938 168.8125 400.425781 168.519531 396.765625 168.0625 C 395.242188 167.898438 400.671875 167.832031 411.101562 167.929688 C 420.3125 167.996094 428.726562 168.226562 429.703125 168.421875 Z M 381.824219 168.324219 C 393.046875 168.746094 384.875 169.105469 360.414062 169.300781 C 342.480469 169.464844 336.140625 169.398438 335.835938 169.140625 C 335.527344 168.84375 336.382812 168.746094 338.640625 168.714844 C 340.410156 168.683594 345.714844 168.550781 350.410156 168.453125 C 362.550781 168.09375 375.234375 168.0625 381.824219 168.324219 Z M 468.433594 168.421875 C 468.433594 168.585938 468.070312 168.746094 467.582031 168.746094 C 467.09375 168.746094 466.484375 168.585938 466.300781 168.421875 C 466.117188 168.226562 466.484375 168.09375 467.15625 168.09375 C 467.886719 168.09375 468.433594 168.226562 468.433594 168.421875 Z M 18.726562 172.730469 C 19.273438 174.460938 18.910156 175.273438 17.6875 175.273438 C 17.503906 175.273438 17.324219 173.773438 17.324219 171.914062 C 17.199219 168.484375 17.566406 168.683594 18.726562 172.730469 Z M 43.734375 170.085938 C 49.648438 170.640625 48.550781 171.164062 41.964844 170.902344 C 37.753906 170.738281 35.558594 170.804688 33.363281 171.164062 C 30.679688 171.585938 30.4375 171.585938 30.617188 171.097656 C 30.742188 170.738281 31.839844 170.410156 33.546875 170.152344 C 37.144531 169.660156 39.035156 169.660156 43.734375 170.085938 Z M 406.769531 170.378906 C 408.355469 170.835938 399.269531 171.425781 394.875 171.164062 C 385.667969 170.640625 386.277344 170.511719 400.425781 169.953125 C 403.109375 169.855469 405.429688 170.019531 406.769531 170.378906 Z M 448.003906 170.054688 C 455.199219 170.3125 463.128906 171.03125 464.042969 171.488281 C 464.226562 171.585938 463.859375 171.683594 463.191406 171.71875 C 462.578125 171.71875 458.921875 171.914062 455.078125 172.140625 L 448.183594 172.535156 L 439.523438 171.457031 C 426.410156 169.792969 426.347656 169.792969 433.667969 169.757812 C 437.207031 169.757812 443.671875 169.890625 448.003906 170.054688 Z M 181.457031 170.574219 C 179.75 170.804688 175.96875 171 172.917969 171 L 167.429688 170.96875 L 170.480469 170.542969 C 172.1875 170.3125 176.027344 170.117188 179.019531 170.117188 L 184.507812 170.117188 Z M 195.792969 170.378906 C 195.792969 170.542969 194.632812 170.707031 193.230469 170.671875 C 190.972656 170.640625 190.851562 170.609375 192.132812 170.378906 C 194.328125 169.988281 195.792969 169.988281 195.792969 170.378906 Z M 420.617188 170.542969 C 422.261719 170.804688 424.640625 171.03125 425.863281 171.03125 C 428.363281 171.03125 439.21875 172.273438 439.949219 172.664062 C 440.195312 172.792969 436.230469 172.992188 431.105469 173.089844 C 423.664062 173.25 420.25 173.1875 414.332031 172.730469 C 410.1875 172.402344 406.710938 172.042969 406.527344 171.945312 C 406.34375 171.847656 407.746094 171.621094 409.574219 171.390625 C 411.710938 171.128906 412.929688 170.804688 412.929688 170.511719 C 412.929688 169.890625 416.710938 169.890625 420.617188 170.542969 Z M 223.789062 171.226562 C 223.910156 171.292969 219.519531 171.324219 214.027344 171.292969 C 207.320312 171.261719 205 171.195312 207.074219 171.03125 C 209.941406 170.804688 223.238281 170.96875 223.789062 171.226562 Z M 56.90625 171.847656 C 61.726562 172.4375 61.910156 172.664062 57.578125 172.664062 C 53.125 172.664062 48.796875 172.078125 50.078125 171.652344 C 51.234375 171.261719 52.761719 171.292969 56.90625 171.847656 Z M 477.28125 171.683594 C 477.097656 171.847656 476.363281 172.175781 475.695312 172.335938 C 474.777344 172.597656 474.535156 172.566406 474.535156 172.207031 C 474.535156 171.78125 475.386719 171.523438 477.15625 171.390625 C 477.460938 171.390625 477.460938 171.488281 477.28125 171.683594 Z M 38.792969 171.914062 C 38.367188 172.140625 31.839844 173.316406 30.984375 173.316406 C 30.679688 173.316406 30.496094 173.1875 30.496094 173.023438 C 30.496094 172.859375 31.960938 172.535156 33.730469 172.238281 C 37.144531 171.683594 39.523438 171.554688 38.792969 171.914062 Z M 136.628906 171.980469 C 136.628906 172.140625 135.46875 172.335938 134.066406 172.46875 C 125.039062 173.121094 93.871094 173.871094 94.847656 173.382812 C 96.492188 172.566406 136.628906 171.226562 136.628906 171.980469 Z M 331.015625 171.914062 C 330.101562 172.371094 307.65625 173.25 300.824219 173.089844 C 297.042969 172.957031 294.113281 172.828125 294.296875 172.730469 C 294.847656 172.4375 313.9375 171.78125 322.902344 171.71875 C 327.601562 171.71875 331.199219 171.78125 331.015625 171.914062 Z M 164.988281 172.371094 C 162.855469 172.730469 145.777344 173.25 145.777344 172.957031 C 145.777344 172.597656 154.011719 172.109375 160.414062 172.078125 C 165.234375 172.078125 166.390625 172.140625 164.988281 172.371094 Z M 352.300781 172.535156 C 350.351562 172.792969 343.886719 173.449219 337.96875 174.003906 C 327.292969 175.015625 327.113281 175.015625 314.121094 174.753906 L 301.007812 174.492188 L 311.679688 174.261719 C 317.535156 174.164062 325.28125 173.804688 328.820312 173.511719 C 336.261719 172.894531 349.800781 172.109375 353.460938 172.078125 C 355.71875 172.078125 355.65625 172.109375 352.300781 172.535156 Z M 45.929688 172.566406 C 45.5 172.632812 44.769531 172.632812 44.402344 172.566406 C 43.976562 172.46875 44.28125 172.402344 45.136719 172.402344 C 45.988281 172.402344 46.292969 172.46875 45.929688 172.566406 Z M 239.890625 172.695312 C 232.996094 173.347656 218.296875 173.707031 207.378906 173.511719 C 187.738281 173.1875 177.613281 172.859375 180.238281 172.664062 C 183.777344 172.4375 242.695312 172.46875 239.890625 172.695312 Z M 388.167969 173.1875 C 392.558594 173.449219 396.21875 173.707031 396.277344 173.773438 C 396.402344 173.839844 393.65625 174.003906 390.242188 174.101562 C 386.765625 174.230469 380.117188 174.558594 375.417969 174.820312 C 366.574219 175.273438 340.410156 175.472656 341.203125 175.046875 C 341.445312 174.917969 346.75 174.261719 353.035156 173.578125 C 363.707031 172.4375 364.929688 172.371094 372.371094 172.535156 C 376.761719 172.632812 383.835938 172.925781 388.167969 173.1875 Z M 403.109375 172.859375 C 403.234375 172.925781 402.074219 172.992188 400.546875 172.992188 C 398.964844 172.992188 397.683594 172.828125 397.683594 172.664062 C 397.683594 172.371094 402.441406 172.535156 403.109375 172.859375 Z M 261.664062 172.957031 C 260.8125 173.089844 260.140625 173.382812 260.140625 173.644531 C 260.140625 174.066406 258.738281 174.101562 251.296875 174.003906 C 246.417969 173.9375 242.390625 173.871094 242.269531 173.804688 C 242.023438 173.707031 258.433594 172.761719 261.054688 172.730469 C 262.886719 172.730469 263.007812 172.761719 261.664062 172.957031 Z M 472.523438 173.1875 C 472.339844 173.285156 471.789062 173.316406 471.363281 173.21875 C 470.875 173.121094 471.058594 173.023438 471.730469 173.023438 C 472.398438 172.992188 472.765625 173.089844 472.523438 173.1875 Z M 284.234375 173.644531 C 284.84375 173.839844 282.097656 173.9375 276 173.90625 C 268.742188 173.871094 267.765625 173.804688 271.121094 173.644531 C 278.011719 173.316406 283.257812 173.316406 284.234375 173.644531 Z M 468.433594 173.644531 C 468.433594 173.804688 467.398438 173.9375 466.179688 173.9375 C 463.859375 173.90625 463.859375 173.90625 465.691406 173.644531 C 468.3125 173.285156 468.433594 173.285156 468.433594 173.644531 Z M 60.996094 174.230469 C 68.007812 174.6875 63.433594 175.015625 55.199219 174.65625 C 50.992188 174.460938 45.378906 174.261719 42.816406 174.261719 C 38.792969 174.199219 38.488281 174.164062 40.5625 173.9375 C 43.246094 173.675781 54.832031 173.839844 60.996094 174.230469 Z M 177.066406 174.199219 C 174.261719 174.261719 169.746094 174.261719 167.003906 174.199219 C 164.195312 174.164062 166.453125 174.101562 172.003906 174.101562 C 177.554688 174.101562 179.8125 174.164062 177.066406 174.199219 Z M 436.167969 175.175781 C 444.039062 175.4375 442.757812 175.730469 430.679688 176.386719 C 420.371094 176.972656 412.382812 177.039062 403.78125 176.613281 C 400.609375 176.449219 394.449219 176.1875 390.058594 176.058594 C 382.800781 175.832031 382.433594 175.796875 385.484375 175.535156 C 395.851562 174.753906 419.457031 174.589844 436.167969 175.175781 Z M 485.820312 174.949219 C 485.574219 175.144531 482.464844 175.273438 478.5 175.273438 C 474.535156 175.273438 471.425781 175.144531 471.179688 174.949219 C 470.9375 174.753906 473.496094 174.621094 478.5 174.621094 C 483.5 174.621094 486.0625 174.753906 485.820312 174.949219 Z M 270.507812 175.632812 C 275.875 175.832031 280.453125 176.125 280.695312 176.222656 C 281.121094 176.417969 227.324219 177.625 222.324219 177.558594 C 220.554688 177.527344 220.554688 177.496094 221.898438 177.199219 C 224.214844 176.710938 223.117188 176.089844 219.519531 175.929688 C 217.6875 175.832031 221.226562 175.699219 227.507812 175.601562 C 248.796875 175.273438 260.75 175.273438 270.507812 175.632812 Z M 302.714844 175.832031 C 301.921875 175.894531 300.578125 175.894531 299.664062 175.832031 C 298.6875 175.765625 299.359375 175.699219 301.007812 175.699219 C 302.714844 175.699219 303.445312 175.765625 302.714844 175.832031 Z M 202.988281 176.449219 C 209.089844 176.582031 214.273438 176.777344 214.394531 176.90625 C 214.578125 177.039062 211.894531 177.332031 208.417969 177.558594 C 199.449219 178.148438 180.175781 177.625 170.480469 176.546875 C 168.710938 176.320312 179.933594 176.027344 185.421875 176.125 C 188.960938 176.1875 196.828125 176.320312 202.988281 176.449219 Z M 34.460938 176.582031 C 34.277344 176.742188 33.121094 176.90625 31.960938 176.90625 C 30.679688 176.90625 29.949219 176.777344 30.191406 176.582031 C 30.375 176.386719 31.535156 176.253906 32.691406 176.253906 C 33.972656 176.253906 34.707031 176.386719 34.460938 176.582031 Z M 80.511719 176.90625 C 86.613281 177.101562 86.429688 177.136719 76.121094 177.167969 C 69.226562 177.199219 65.265625 177.101562 65.265625 176.90625 C 65.265625 176.546875 70.691406 176.546875 80.511719 176.90625 Z M 169.808594 177.460938 L 178.40625 178.375 L 165.902344 178.605469 C 159.011719 178.734375 139.433594 178.996094 122.292969 179.160156 L 91.1875 179.484375 L 78.683594 180.660156 C 63.859375 182.0625 53.371094 182.390625 44.160156 181.804688 C 33.484375 181.152344 33.789062 180.953125 45.746094 180.695312 C 59.164062 180.433594 74.109375 179.78125 92.40625 178.703125 C 100.824219 178.214844 114.851562 177.722656 129.917969 177.398438 C 143.152344 177.101562 154.558594 176.84375 155.230469 176.777344 C 158.464844 176.484375 161.816406 176.644531 169.808594 177.460938 Z M 42.023438 177.691406 C 41.902344 177.757812 40.011719 177.886719 37.816406 178.015625 C 35.132812 178.148438 34.15625 178.113281 34.765625 177.886719 C 35.621094 177.59375 42.636719 177.398438 42.023438 177.691406 Z M 72.277344 178.246094 C 78.925781 178.277344 73.558594 178.800781 62.519531 179.160156 C 44.464844 179.78125 29.886719 179.976562 29.886719 179.617188 C 29.886719 179.421875 32.753906 179.191406 36.472656 179.0625 C 40.074219 178.929688 44.953125 178.636719 47.269531 178.375 C 50.199219 178.082031 54.222656 177.984375 60.078125 178.082031 C 64.777344 178.148438 70.265625 178.214844 72.277344 178.246094 Z M 24.703125 179.160156 C 24.886719 179.324219 24.761719 179.550781 24.398438 179.683594 C 24.09375 179.78125 23.789062 179.648438 23.789062 179.386719 C 23.789062 178.800781 24.152344 178.703125 24.703125 179.160156 Z M 28.058594 179.519531 C 28.058594 179.683594 27.8125 179.84375 27.449219 179.84375 C 27.140625 179.84375 26.835938 179.683594 26.835938 179.519531 C 26.835938 179.324219 27.140625 179.191406 27.449219 179.191406 C 27.8125 179.191406 28.058594 179.324219 28.058594 179.519531 Z M 28.058594 179.519531 "/>
</g>
</svg>
